<?xml version="1.0" encoding="iso-8859-1"?>
<!-- Generator: Adobe Illustrator 19.0.0, SVG Export Plug-In . SVG Version: 6.00 Build 0)  -->
<svg version="1.1" id="Capa_1" xmlns="http://www.w3.org/2000/svg" xmlns:xlink="http://www.w3.org/1999/xlink" x="0px" y="0px"
	 viewBox="0 0 512 512" style="enable-background:new 0 0 512 512;" xml:space="preserve">
<g>
	<g>
		<path d="M477,76H307c-19.299,0-35,15.701-35,35H35c-19.299,0-35,15.701-35,35v220c0,19.299,15.701,35,35,35h237
			c0,19.299,15.701,35,35,35h170c19.299,0,35-15.701,35-35V111C512,91.701,496.299,76,477,76z M272,371H35c-2.757,0-5-2.243-5-5v-15
			h242V371z M272,321H30V146c0-2.757,2.243-5,5-5h237V321z M428.703,106l-4,20h-65.406l-4-20H428.703z M482,401c0,2.757-2.243,5-5,5
			H307c-2.757,0-5-2.243-5-5V111c0-2.757,2.243-5,5-5h17.703l10,50h114.594l10-50H477c2.757,0,5,2.243,5,5V401z"/>
	</g>
</g>
<g>
	<g>
		<path d="M187,152c-27.906,0-51.424,19.151-58.101,45H81v110h110v-35.148c31.224-2.067,56-28.113,56-59.852
			C247,178.916,220.084,152,187,152z M161,277h-50v-50h17.899c4.45,17.226,16.379,31.478,32.101,39.069V277z M187,242
			c-16.542,0-30-13.458-30-30s13.458-30,30-30s30,13.458,30,30S203.542,242,187,242z"/>
	</g>
</g>
<g>
	<g>
		<path d="M417,178c-27.906,0-51.424,19.151-58.101,45H311v110h110v-35.148c31.224-2.067,56-28.113,56-59.852
			C477,204.916,450.084,178,417,178z M391,303h-50v-50h17.899c4.45,17.226,16.379,31.478,32.101,39.069V303z M417,268
			c-16.542,0-30-13.458-30-30s13.458-30,30-30s30,13.458,30,30S433.542,268,417,268z"/>
	</g>
</g>
<g>
</g>
<g>
</g>
<g>
</g>
<g>
</g>
<g>
</g>
<g>
</g>
<g>
</g>
<g>
</g>
<g>
</g>
<g>
</g>
<g>
</g>
<g>
</g>
<g>
</g>
<g>
</g>
<g>
</g>
</svg>
