<svg width="112" height="102" viewBox="0 0 112 102" fill="none" xmlns="http://www.w3.org/2000/svg">
<g clip-path="url(#clip0)">
<path d="M109.812 9.80912H103.25V2.08594C103.25 1.51062 103.016 0.94625 102.609 0.539375C102.202 0.1325 101.64 -0.101562 101.062 -0.101562H10.9375C10.3598 -0.101562 9.79781 0.132281 9.39094 0.539375C8.98406 0.946469 8.75 1.51062 8.75 2.08594V9.80912H2.1875C0.979563 9.80912 0 10.7887 0 11.9966C0 23.0936 3.83556 34.2124 10.7999 43.3046C13.2661 46.5243 16.0954 49.4431 19.2067 52.0104L24.2998 90.9046C24.4422 91.9937 25.3706 92.8079 26.4688 92.8079H26.7017L27.58 99.706C27.7191 100.798 28.6488 101.617 29.75 101.617H81.1562C82.2574 101.617 83.1871 100.798 83.3263 99.706L84.2045 92.8079H84.6562C85.7443 92.8079 86.6666 92.0086 86.8214 90.9317L92.3652 52.3588C95.6454 49.7083 98.6212 46.6711 101.2 43.3046C108.164 34.2122 112 23.0936 112 11.9966C112 10.7885 111.02 9.80912 109.812 9.80912V9.80912ZM13.125 4.27344H98.875V19.9403H66.0625C64.8548 19.9403 63.875 20.9201 63.875 22.1278C63.875 23.3331 64.8548 24.3153 66.0625 24.3153H91.9756L88.2728 50.0797C84.1945 53.1277 79.5946 55.5767 74.5938 57.27V54.722C74.5938 53.5141 73.6142 52.5345 72.4062 52.5345H39.5938C38.3858 52.5345 37.4062 53.5141 37.4062 54.722V57.27C32.2407 55.5209 27.5034 52.9646 23.3264 49.7754L19.9924 24.3153H46.375C47.5803 24.3153 48.5625 23.3331 48.5625 22.1278C48.5625 20.9201 47.5803 19.9403 46.375 19.9403H13.125V4.27344ZM70.2188 56.9095V63.5464H41.7812V56.9095H70.2188ZM4.42641 14.1841H8.75V22.1278C8.75 22.7031 8.98384 23.2675 9.39094 23.6742C9.79781 24.081 10.36 24.3153 10.9375 24.3153H15.5802L18.3422 45.4067C10.1251 37.1566 4.98838 26.1095 4.42641 14.1841V14.1841ZM79.2295 97.2422H31.6767L31.1122 92.8079H79.7943L79.2295 97.2422ZM82.7608 88.4329H28.3885L24.0888 55.5979C28.2122 58.2857 32.6992 60.406 37.406 61.8644V65.7339C37.406 66.9418 38.3856 67.9214 39.5935 67.9214H72.406C73.614 67.9214 74.5935 66.9418 74.5935 65.7339V61.8644C79.1203 60.4618 83.4435 58.4464 87.4357 55.9035L82.7608 88.4329ZM93.3153 45.7482L96.3957 24.3153H101.062C101.638 24.3153 102.202 24.0812 102.609 23.6742C103.016 23.2675 103.25 22.7031 103.25 22.1278V14.1841H107.574C107.004 26.2744 101.732 37.4626 93.3153 45.7482Z" fill="url(#paint0_linear)"/>
</g>
<defs>
<linearGradient id="paint0_linear" x1="112" y1="-0.101581" x2="-14.2724" y2="22.7494" gradientUnits="userSpaceOnUse">
<stop stop-color="#34CEFF"/>
<stop offset="1" stop-color="#0E68F0"/>
</linearGradient>
<clipPath id="clip0">
<rect width="112" height="101.481" fill="white"/>
</clipPath>
</defs>
</svg>
