<svg width="112" height="112" viewBox="0 0 112 112" fill="none" xmlns="http://www.w3.org/2000/svg">
<path d="M107.175 8.43336e-06H4.82393C3.01874 -0.0033229 1.36378 0.980526 0.538584 2.54736C-0.297999 4.13528 -0.15117 6.04746 0.917606 7.49769L38.4147 59.0309C38.4272 59.0487 38.4409 59.0654 38.4534 59.0831C39.8158 60.8776 40.5523 63.0507 40.5568 65.2849V107.3C40.5488 108.544 41.0497 109.739 41.9488 110.622C42.848 111.505 44.0705 112 45.3452 112C45.994 112 46.6348 111.873 47.2335 111.631L68.304 103.793C70.1923 103.231 71.4455 101.493 71.4455 99.3999V65.2849C71.4489 63.0518 72.1864 60.8776 73.5477 59.0831C73.5603 59.0654 73.5739 59.0487 73.5864 59.0309L111.082 7.49547C112.151 6.04635 112.298 4.13528 111.461 2.54736C110.636 0.980526 108.981 -0.0033229 107.175 8.43336e-06V8.43336e-06ZM68.8492 55.7152C66.7549 58.4879 65.6224 61.8404 65.6156 65.2849V98.7092L46.3844 105.863V65.2849C46.3776 61.8404 45.2451 58.4879 43.1496 55.7152L6.74636 5.68546H105.254L68.8492 55.7152Z" fill="url(#paint0_linear)"/>
<defs>
<linearGradient id="paint0_linear" x1="112" y1="-4.9427e-06" x2="18.7801" y2="125.905" gradientUnits="userSpaceOnUse">
<stop stop-color="#1E3CDE"/>
<stop offset="1" stop-color="#8123DF"/>
</linearGradient>
</defs>
</svg>
