<svg width="112" height="112" viewBox="0 0 112 112" fill="none" xmlns="http://www.w3.org/2000/svg">
<g clip-path="url(#clip0)">
<path d="M98.0523 16.3319C97.9104 16.3319 97.7677 16.3183 97.6259 16.2901C97.4857 16.2619 97.3473 16.22 97.2166 16.1653C97.085 16.1106 96.9559 16.0431 96.838 15.9645C96.7201 15.8833 96.6064 15.7936 96.5056 15.6911C96.0989 15.2835 95.8647 14.7221 95.8647 14.1462C95.8647 14.0017 95.8801 13.8599 95.9083 13.7181C95.9365 13.5779 95.9784 13.4395 96.0331 13.3087C96.0878 13.1772 96.1553 13.0481 96.2339 12.9302C96.3134 12.8097 96.4048 12.6986 96.5056 12.5978C96.6064 12.497 96.7192 12.4055 96.838 12.3261C96.9559 12.2475 97.085 12.18 97.2166 12.1253C97.3473 12.0706 97.4849 12.0287 97.6259 12.0005C97.9078 11.9433 98.1984 11.9433 98.4812 12.0005C98.6205 12.0287 98.7564 12.0706 98.8897 12.1253C99.0213 12.18 99.1477 12.2475 99.2665 12.3261C99.3861 12.4055 99.4981 12.497 99.5989 12.5978C99.6989 12.6986 99.7912 12.8097 99.8723 12.9302C99.9509 13.0481 100.018 13.1772 100.073 13.3087C100.128 13.4395 100.17 13.5779 100.198 13.7181C100.226 13.8599 100.24 14.0017 100.24 14.1462C100.24 14.7221 100.007 15.2835 99.598 15.6911C99.4981 15.7936 99.3861 15.8833 99.2656 15.9645C99.1477 16.0431 99.0213 16.1106 98.8897 16.1653C98.7581 16.22 98.6205 16.2619 98.4804 16.2901C98.3385 16.3183 98.1967 16.3319 98.0523 16.3319Z" fill="url(#paint0_linear)"/>
<path d="M14.3674 16.3319C14.223 16.3319 14.0803 16.3183 13.9385 16.2901C13.7983 16.2619 13.6608 16.22 13.5292 16.1653C13.3984 16.1106 13.2711 16.0431 13.1532 15.9645C13.0327 15.8833 12.9208 15.7936 12.8208 15.6911C12.7174 15.5902 12.6277 15.4783 12.5474 15.3587C12.4688 15.2399 12.4004 15.1134 12.3457 14.9818C12.291 14.8511 12.25 14.7127 12.2209 14.5725C12.1927 14.4307 12.1799 14.2889 12.1799 14.1444C12.1799 14.0017 12.1927 13.8599 12.2209 13.7181C12.25 13.5779 12.291 13.4395 12.3457 13.3087C12.4004 13.1772 12.4688 13.0507 12.5474 12.9302C12.6277 12.8123 12.7174 12.7003 12.8208 12.5978C12.9208 12.497 13.0327 12.4073 13.1532 12.3261C13.2711 12.2475 13.3984 12.18 13.5292 12.1253C13.6608 12.0706 13.7983 12.0287 13.9385 12.0005C14.2205 11.9433 14.5118 11.9433 14.7938 12.0005C14.934 12.0287 15.0715 12.0706 15.2031 12.1253C15.3339 12.18 15.4612 12.2475 15.5808 12.3261C15.6996 12.4073 15.8132 12.497 15.9141 12.5978C16.014 12.7003 16.1063 12.8123 16.1849 12.9302C16.2636 13.0507 16.3319 13.1772 16.3866 13.3087C16.4413 13.4395 16.4823 13.5779 16.5105 13.7181C16.5396 13.8599 16.5549 14.0017 16.5549 14.1444C16.5549 14.2889 16.5396 14.4307 16.5105 14.5725C16.4823 14.7127 16.4413 14.8511 16.3866 14.9818C16.3319 15.1134 16.2636 15.2399 16.1849 15.3587C16.1063 15.4783 16.014 15.5902 15.9141 15.6911C15.8132 15.7936 15.6996 15.8833 15.5808 15.9645C15.4612 16.0431 15.3339 16.1106 15.2031 16.1653C15.0715 16.22 14.934 16.2619 14.7938 16.2901C14.6511 16.3183 14.5093 16.3319 14.3674 16.3319Z" fill="url(#paint1_linear)"/>
<path d="M110.406 87.4557L108.385 85.4348C107.225 84.2744 105.683 83.6352 104.042 83.6352C103.001 83.6352 102.001 83.8924 101.112 84.3761L92.5374 75.8004L95.1743 73.1634C97.5755 70.7614 97.5755 66.853 95.1743 64.4519L93.1791 62.4558C92.0161 61.2919 90.4686 60.6511 88.8237 60.6511C87.178 60.6511 85.6313 61.2919 84.4684 62.4558L82.6492 64.275L75.938 57.0366L111.48 24.7538C111.947 24.3291 112.209 23.7224 112.196 23.0909L111.785 2.55405C111.762 1.38083 110.816 0.434055 109.642 0.410984L89.1091 0.000827178C88.4683 -0.0154082 87.8701 0.249485 87.4463 0.716893L56.2 35.1308L24.9734 0.717747C24.5487 0.249485 23.9377 -0.0128447 23.3097 0.000827178L2.77704 0.410984C1.60297 0.434055 0.657044 1.38083 0.633973 2.55405L0.223816 23.0909C0.210998 23.7224 0.472474 24.3291 0.940736 24.7538L36.398 56.9409L29.7534 64.2579L27.9393 62.4438C26.7798 61.2834 25.2374 60.6442 23.5959 60.6442C21.9553 60.6442 20.4129 61.2834 19.2525 62.4438L17.2325 64.4638C14.8382 66.859 14.8382 70.7554 17.2325 73.1497L19.8823 75.7995L11.3075 84.3761C10.4188 83.8924 9.41817 83.6352 8.37825 83.6352C6.73677 83.6352 5.19441 84.2744 4.034 85.4348L2.01398 87.4548C-0.380311 89.85 -0.380311 93.7465 2.01398 96.1407L16.0713 110.201C17.2317 111.361 18.774 112 20.4147 112C22.0561 112 23.5985 111.361 24.758 110.201L26.7789 108.18C28.7443 106.214 29.0963 103.236 27.8342 100.908L36.4099 92.3306L39.058 94.9795C40.2184 96.1399 41.7608 96.779 43.4014 96.779C45.0429 96.779 46.5852 96.1399 47.7448 94.9795L49.7657 92.9586C52.1591 90.5643 52.1591 86.6678 49.7657 84.2735L47.9499 82.4569L56.1034 75.051L64.4519 82.474L62.6668 84.2599C60.2657 86.6618 60.2657 90.5703 62.6668 92.9714L64.6621 94.9675C65.825 96.1313 67.3717 96.7722 69.0174 96.7722C70.6623 96.7722 72.2098 96.1313 73.3728 94.9675L76.0089 92.3306L84.5846 100.908C83.3225 103.236 83.6745 106.214 85.6407 108.181L87.6599 110.201C88.8203 111.361 90.3627 112 92.0042 112C93.6448 112 95.1871 111.361 96.3475 110.201L110.405 96.1407C112.8 93.7465 112.8 89.85 110.406 87.4557ZM79.5533 67.3708L75.1142 71.8107L67.7647 64.4595L72.6994 59.9777L79.5533 67.3708ZM4.61762 22.1835L4.96626 4.74327L22.4022 4.39463L53.2452 38.3847L47.7482 44.4396L22.1271 18.8142C21.2734 17.9597 19.8883 17.9597 19.0338 18.8142C18.1793 19.6678 18.1793 21.053 19.0338 21.9075L44.8036 47.6824L39.3391 53.7015L4.61762 22.1835ZM90.0166 4.39463L107.453 4.74327L107.802 22.1835L44.8532 79.3602L40.3987 74.9049L93.3859 21.9075C94.2395 21.053 94.2395 19.6678 93.3859 18.8134C92.5314 17.9597 91.1462 17.9597 90.2917 18.8142L37.3046 71.8107L32.8501 67.3554L90.0166 4.39463ZM23.6848 105.086L21.6648 107.107C21.3307 107.441 20.8872 107.625 20.4147 107.625C19.943 107.625 19.4986 107.441 19.1654 107.107L5.1081 93.0475C4.41938 92.3588 4.41938 91.2377 5.1081 90.5481L7.12813 88.5281C7.46223 88.1939 7.90572 88.0102 8.37825 88.0102C8.84993 88.0102 9.29341 88.1939 9.62752 88.5281L9.93685 88.8365C9.93685 88.8374 9.9377 88.8382 9.93856 88.8382L23.3729 102.276C23.3738 102.277 23.3746 102.277 23.3755 102.278L23.6848 102.588C24.3735 103.277 24.3735 104.398 23.6848 105.086ZM24.9195 97.6352L14.5785 87.2925L22.9756 78.8936L33.3167 89.2373L24.9195 97.6352ZM46.6715 89.8653L44.6515 91.8862C44.3174 92.2195 43.8739 92.404 43.4014 92.404C42.9297 92.404 42.4854 92.2203 42.1521 91.8862L20.3258 70.0565C19.6371 69.3678 19.6371 68.2467 20.3258 67.5579L22.3467 65.5371C22.6799 65.2038 23.1243 65.0192 23.5959 65.0192C24.0676 65.0192 24.512 65.2029 24.8461 65.5371L46.6715 87.3668C47.3603 88.0555 47.3603 89.1766 46.6715 89.8653ZM59.3608 72.0927L64.5219 67.4041L72.021 74.9049L67.5511 79.3756L59.3608 72.0927ZM70.2795 91.8743C69.942 92.2118 69.4942 92.3972 69.0174 92.3972C68.5415 92.3972 68.0929 92.2118 67.7562 91.8743L65.7609 89.879C65.0645 89.1826 65.0645 88.0495 65.7609 87.354L87.5616 65.549C87.8983 65.2115 88.3469 65.0261 88.8229 65.0261C89.2997 65.0261 89.7483 65.2115 90.085 65.549L92.0802 67.5443C92.7766 68.2407 92.7766 69.3729 92.0802 70.0693L70.2795 91.8743ZM89.4441 78.8936L97.8412 87.2925L87.4993 97.6352L79.103 89.2373L89.4441 78.8936ZM107.312 93.0475L93.2543 107.107C92.9202 107.441 92.4767 107.625 92.0042 107.625C91.5325 107.625 91.089 107.441 90.7549 107.107L88.7349 105.087C88.0461 104.398 88.0461 103.277 88.734 102.588L89.0442 102.279C89.0442 102.278 89.045 102.277 89.0459 102.276L102.791 88.5281C103.125 88.1948 103.57 88.0102 104.041 88.0102C104.513 88.0102 104.957 88.1939 105.292 88.5281L107.311 90.5489C108 91.2377 108 92.3588 107.312 93.0475Z" fill="url(#paint2_linear)"/>
</g>
<defs>
<linearGradient id="paint0_linear" x1="100.24" y1="11.9576" x2="95.2797" y2="12.7729" gradientUnits="userSpaceOnUse">
<stop stop-color="#EC8814"/>
<stop offset="1" stop-color="#F03838"/>
</linearGradient>
<linearGradient id="paint1_linear" x1="16.5549" y1="11.9576" x2="11.5949" y2="12.7729" gradientUnits="userSpaceOnUse">
<stop stop-color="#EC8814"/>
<stop offset="1" stop-color="#F03838"/>
</linearGradient>
<linearGradient id="paint2_linear" x1="112.201" y1="0.000101761" x2="-14.7582" y2="20.8632" gradientUnits="userSpaceOnUse">
<stop stop-color="#EC8814"/>
<stop offset="1" stop-color="#F03838"/>
</linearGradient>
<clipPath id="clip0">
<rect width="112" height="112" fill="white"/>
</clipPath>
</defs>
</svg>
