<svg width="112" height="112" viewBox="0 0 112 112" fill="none" xmlns="http://www.w3.org/2000/svg">
<g clip-path="url(#clip0)">
<path d="M1.428 26.0425C1.43201 26.0116 1.43723 25.9811 1.44204 25.9506C1.46009 25.8371 1.48376 25.7256 1.51424 25.6165C1.51866 25.5996 1.52227 25.5832 1.52709 25.5663C1.56479 25.4404 1.61053 25.3176 1.66388 25.1989C1.6727 25.1788 1.68313 25.1596 1.69235 25.1395C1.74089 25.0368 1.79506 24.9373 1.85443 24.8414C1.86606 24.8222 1.87728 24.8025 1.88932 24.7837C1.95871 24.677 2.03454 24.5751 2.11677 24.4784C2.13282 24.4595 2.15007 24.4419 2.16692 24.423C2.23912 24.3424 2.31534 24.2658 2.39557 24.1932C2.41603 24.1747 2.43568 24.1555 2.45654 24.1378C2.55402 24.0544 2.65671 23.977 2.76422 23.9064C2.78107 23.8955 2.79832 23.8859 2.81517 23.8755C2.91746 23.8113 3.02377 23.7535 3.13368 23.7018C3.14492 23.6966 3.15494 23.6893 3.16617 23.6841L54.7566 0.269148C55.5464 -0.0898788 56.4534 -0.0898788 57.2433 0.269148L92.89 16.4486C94.4032 17.1354 95.0727 18.9185 94.3859 20.4316C93.6996 21.9448 91.9157 22.6163 90.4029 21.9275L55.9997 6.31244L11.7864 26.3798L55.9997 45.8102L106.379 23.6701C106.383 23.6685 106.387 23.6677 106.39 23.6661C106.464 23.634 106.54 23.6063 106.617 23.5798C106.636 23.573 106.655 23.565 106.675 23.5586C106.738 23.5385 106.803 23.5229 106.867 23.5068C106.901 23.4984 106.935 23.488 106.97 23.4807C107.011 23.4719 107.054 23.4671 107.096 23.4599C107.154 23.4503 107.213 23.4394 107.272 23.433C107.299 23.4302 107.327 23.4298 107.355 23.4278C107.428 23.4222 107.501 23.4174 107.574 23.417C107.58 23.417 107.584 23.4162 107.59 23.4162C107.618 23.4162 107.646 23.4198 107.674 23.4206C107.739 23.4222 107.804 23.4242 107.868 23.4302C107.918 23.4346 107.967 23.4426 108.017 23.4499C108.062 23.4567 108.108 23.4619 108.152 23.4707C108.213 23.4824 108.273 23.4976 108.333 23.5124C108.366 23.5209 108.398 23.5281 108.431 23.5377C108.495 23.5566 108.559 23.579 108.622 23.6019C108.649 23.6115 108.676 23.6207 108.703 23.6316C108.765 23.6565 108.826 23.6841 108.886 23.713C108.914 23.7267 108.942 23.7391 108.97 23.7535C109.024 23.7816 109.078 23.8125 109.13 23.8442C109.163 23.8634 109.195 23.8823 109.226 23.9028C109.272 23.932 109.315 23.9637 109.359 23.9954C109.396 24.0219 109.432 24.0484 109.467 24.0765C109.504 24.1061 109.54 24.1374 109.575 24.1687C109.614 24.2024 109.652 24.2357 109.688 24.2714C109.72 24.3023 109.75 24.3352 109.78 24.3673C109.816 24.4058 109.853 24.4439 109.887 24.4844C109.918 24.5205 109.946 24.559 109.975 24.5967C110.005 24.6353 110.035 24.673 110.063 24.7135C110.096 24.7616 110.126 24.8118 110.157 24.8619C110.176 24.8944 110.197 24.9261 110.216 24.9594C110.252 25.0244 110.284 25.0914 110.316 25.1587C110.325 25.178 110.336 25.1953 110.344 25.2149C110.346 25.2185 110.346 25.2225 110.348 25.2257C110.38 25.2996 110.408 25.3754 110.434 25.4516C110.441 25.4712 110.449 25.4905 110.455 25.5102C110.475 25.5723 110.491 25.6365 110.506 25.7003C110.515 25.7356 110.526 25.7705 110.534 25.8062C110.542 25.8455 110.547 25.8856 110.553 25.9253C110.564 25.9863 110.575 26.0473 110.581 26.1087C110.584 26.1327 110.584 26.1568 110.586 26.1809C110.592 26.2579 110.597 26.3353 110.597 26.4123C110.597 26.4167 110.598 26.4208 110.598 26.4256V85.1644C110.598 86.3378 109.916 87.404 108.851 87.8958L57.2609 111.723C57.2609 111.723 57.2537 111.726 57.2505 111.728C57.2284 111.737 57.206 111.744 57.1839 111.754C57.0836 111.797 56.9829 111.834 56.8806 111.866C56.8449 111.876 56.8088 111.886 56.7723 111.895C56.6748 111.921 56.5774 111.942 56.4795 111.958C56.4494 111.963 56.4193 111.969 56.3888 111.973C56.2597 111.99 56.1301 112.001 56.0013 112.001C55.9885 112.001 55.976 111.999 55.9632 111.998C55.8497 111.997 55.7362 111.989 55.623 111.974C55.5813 111.969 55.5404 111.961 55.4995 111.954C55.4116 111.939 55.3242 111.921 55.2375 111.898C55.197 111.888 55.1573 111.877 55.1176 111.865C55.0217 111.835 54.9278 111.801 54.8344 111.761C54.8083 111.75 54.7818 111.742 54.7562 111.73C54.7501 111.727 54.7437 111.726 54.7381 111.723L3.14812 87.8954C2.08307 87.4036 1.40113 86.3374 1.40113 85.164V26.4244C1.40113 26.2948 1.41195 26.1676 1.428 26.0425ZM52.9911 104.287V63.8891C52.9911 62.2272 54.3378 60.8805 55.9997 60.8805C57.6617 60.8805 59.0083 62.2272 59.0083 63.8891V104.288L104.581 83.2393V31.0328L57.21 51.8507C56.8241 52.0204 56.4121 52.105 55.9993 52.105C55.5865 52.105 55.1746 52.0204 54.7886 51.8507L7.41834 31.0328V83.2389L52.9911 104.287Z" fill="url(#paint0_linear)"/>
</g>
<defs>
<linearGradient id="paint0_linear" x1="1.40113" y1="-0.000127013" x2="95.2868" y2="123.629" gradientUnits="userSpaceOnUse">
<stop stop-color="#656565"/>
<stop offset="1" stop-color="#1A1A1A"/>
</linearGradient>
<clipPath id="clip0">
<rect width="112" height="112" transform="matrix(-1 0 0 1 112 0)" fill="white"/>
</clipPath>
</defs>
</svg>
