<svg width="112" height="112" viewBox="0 0 112 112" fill="none" xmlns="http://www.w3.org/2000/svg">
<g clip-path="url(#clip0)">
<path d="M88.9518 108.712V82.1919H92.6782V65.6207L75.144 51.5934V30.5524L57.6099 16.525V12.0552H71.6372V0H54.3218V16.525L36.7876 30.5524V51.5934L19.2534 65.6216V82.1919H29.7739V108.712H26.0483V85.6987H22.7603V108.712H17.5V112H94.6504V108.712H88.9518ZM57.6099 3.28809H68.3491V8.76709H57.6099V3.28809ZM85.6646 108.712H74.9244V82.1919H78.6509V104.986H81.9381V82.1919H85.6646V108.712ZM64.6235 78.9038V68.1646H75.3628V78.9038H64.6235ZM71.6372 92.2501L61.5781 82.1919H71.6372V92.2501ZM50.5962 78.9038V68.1646H61.3354V78.9038H50.5962ZM56.0752 44.6652L50.8175 38.3564H61.3329L56.0752 44.6652ZM64.8423 39.2802L70.1 45.5889H59.5846L64.8423 39.2802ZM52.5658 45.5889H42.0504L47.3081 39.2802L52.5658 45.5889ZM40.0757 48.877H71.856V50.8491H40.0757V48.877ZM58.2986 54.1372L60.9834 64.8765H51.167L53.8518 54.1372H58.2986ZM64.3723 64.8765L61.6875 54.1372H65.7737L73.829 64.8765H64.3723ZM50.4629 54.1372L47.7781 64.8765H38.3223L46.3767 54.1372H50.4629ZM77.9382 64.8765L69.8838 54.1372H73.0326L86.4575 64.8765H77.9382ZM68.3525 38.3564H71.856V42.5828L68.3525 38.3564ZM71.856 33.0962V35.0684H40.0757V33.0962H71.856ZM43.2271 29.8081L56.0752 19.5294L68.9233 29.8081H43.2271ZM43.7987 38.3564L40.0757 42.5828V38.3564H43.7987ZM42.2675 54.1372L34.2122 64.8765H25.6929L39.1178 54.1372H42.2675ZM47.3081 68.1646V78.9038H36.5688V68.1646H47.3081ZM50.3535 82.1919L40.0757 92.2501V82.1919H50.3535ZM40.0757 96.9003L43.8013 93.1738V108.712H40.0757V96.9003ZM47.0894 89.8866L55.0028 82.1919H56.928L64.6227 89.8866V108.712H47.0885V89.8866H47.0894ZM67.9108 93.1738L71.6372 96.9003V108.712H67.9108V93.1738ZM78.6509 78.9038V68.1646H89.3901V78.9038H78.6509ZM22.5415 68.1646H33.2808V78.9038H22.5415V68.1646ZM33.062 82.1919H36.7876V108.712H33.062V82.1919Z" fill="url(#paint0_linear)"/>
<path d="M40.2944 71.8901H43.8013V75.1782H40.2944V71.8901Z" fill="url(#paint1_linear)"/>
<path d="M54.3218 71.8901H57.8286V75.1782H54.3218V71.8901Z" fill="url(#paint2_linear)"/>
<path d="M68.3491 71.8901H71.856V75.1782H68.3491V71.8901Z" fill="url(#paint3_linear)"/>
<path d="M82.3765 71.8901H85.8833V75.1782H82.3765V71.8901Z" fill="url(#paint4_linear)"/>
<path d="M26.2671 71.8901H29.7739V75.1782H26.2671V71.8901Z" fill="url(#paint5_linear)"/>
</g>
<defs>
<linearGradient id="paint0_linear" x1="94.6504" y1="-4.9427e-06" x2="-2.5587" y2="90.44" gradientUnits="userSpaceOnUse">
<stop stop-color="#FFA41D"/>
<stop offset="1" stop-color="#DBFF00"/>
</linearGradient>
<linearGradient id="paint1_linear" x1="43.8013" y1="71.8901" x2="41.1205" y2="75.7517" gradientUnits="userSpaceOnUse">
<stop stop-color="#FFA41D"/>
<stop offset="1" stop-color="#DBFF00"/>
</linearGradient>
<linearGradient id="paint2_linear" x1="57.8286" y1="71.8901" x2="55.1479" y2="75.7517" gradientUnits="userSpaceOnUse">
<stop stop-color="#FFA41D"/>
<stop offset="1" stop-color="#DBFF00"/>
</linearGradient>
<linearGradient id="paint3_linear" x1="71.856" y1="71.8901" x2="69.1752" y2="75.7517" gradientUnits="userSpaceOnUse">
<stop stop-color="#FFA41D"/>
<stop offset="1" stop-color="#DBFF00"/>
</linearGradient>
<linearGradient id="paint4_linear" x1="85.8833" y1="71.8901" x2="83.2025" y2="75.7517" gradientUnits="userSpaceOnUse">
<stop stop-color="#FFA41D"/>
<stop offset="1" stop-color="#DBFF00"/>
</linearGradient>
<linearGradient id="paint5_linear" x1="29.7739" y1="71.8901" x2="27.0932" y2="75.7517" gradientUnits="userSpaceOnUse">
<stop stop-color="#FFA41D"/>
<stop offset="1" stop-color="#DBFF00"/>
</linearGradient>
<clipPath id="clip0">
<rect width="112" height="112" fill="white"/>
</clipPath>
</defs>
</svg>
