<svg width="112" height="112" viewBox="0 0 112 112" fill="none" xmlns="http://www.w3.org/2000/svg">
<path d="M108.974 26.5773C108.97 26.5469 108.965 26.517 108.96 26.487C108.942 26.3755 108.919 26.266 108.889 26.1589C108.885 26.1423 108.881 26.1262 108.877 26.1096C108.84 25.9859 108.795 25.8653 108.743 25.7487C108.734 25.729 108.724 25.7101 108.715 25.6904C108.667 25.5895 108.614 25.4918 108.556 25.3977C108.544 25.3788 108.533 25.3595 108.522 25.3409C108.454 25.2362 108.379 25.1361 108.299 25.0411C108.283 25.0226 108.266 25.0053 108.25 24.9868C108.179 24.9076 108.104 24.8323 108.026 24.761C108.006 24.7429 107.986 24.724 107.966 24.7066C107.87 24.6247 107.77 24.5487 107.664 24.4793C107.648 24.4687 107.631 24.4592 107.614 24.449C107.514 24.3859 107.41 24.3292 107.302 24.2784C107.291 24.2733 107.281 24.2662 107.27 24.2611L56.718 1.26446C55.944 0.911847 55.0552 0.911847 54.2813 1.26446L19.3516 17.1548C17.8689 17.8293 17.2129 19.5806 17.8858 21.0667C18.5584 22.5528 20.3064 23.2123 21.7887 22.5358L55.4998 7.19976L98.8236 26.9086L55.4998 45.9918L6.1336 24.2473C6.13006 24.2457 6.12653 24.2449 6.12299 24.2433C6.05066 24.2118 5.97598 24.1846 5.9009 24.1586C5.88203 24.1519 5.86316 24.144 5.8443 24.1377C5.78258 24.118 5.71891 24.1027 5.65562 24.0869C5.62221 24.0786 5.5888 24.0684 5.55499 24.0613C5.51451 24.0526 5.47284 24.0479 5.43157 24.0408C5.37418 24.0314 5.31679 24.0207 5.2594 24.0144C5.23267 24.0117 5.20476 24.0113 5.17764 24.0093C5.10571 24.0038 5.03416 23.9991 4.96262 23.9987C4.95751 23.9987 4.9528 23.9979 4.94769 23.9979C4.91978 23.9979 4.89266 24.0014 4.86514 24.0022C4.80146 24.0038 4.73778 24.0058 4.67489 24.0117C4.62576 24.016 4.5778 24.0239 4.52945 24.031C4.48504 24.0377 4.44022 24.0428 4.39659 24.0515C4.33645 24.0629 4.27788 24.0779 4.21892 24.0924C4.18708 24.1007 4.15524 24.1078 4.1238 24.1172C4.06012 24.1358 3.99801 24.1578 3.9363 24.1803C3.90957 24.1897 3.88284 24.1988 3.8565 24.2094C3.79558 24.2339 3.73622 24.2611 3.67726 24.2894C3.65014 24.3028 3.62223 24.315 3.5955 24.3292C3.54204 24.3568 3.48976 24.3871 3.43827 24.4182C3.40643 24.4372 3.37459 24.4557 3.34393 24.4758C3.29951 24.5045 3.25667 24.5357 3.21382 24.5668C3.17805 24.5928 3.14228 24.6188 3.10769 24.6464C3.07153 24.6755 3.03655 24.7062 3.00195 24.737C2.96422 24.7701 2.92688 24.8028 2.89111 24.8378C2.86005 24.8682 2.83057 24.9005 2.80109 24.932C2.76571 24.9698 2.73034 25.0072 2.69653 25.047C2.66666 25.0825 2.63875 25.1203 2.61006 25.1574C2.58097 25.1952 2.55188 25.2322 2.52437 25.272C2.49174 25.3193 2.46226 25.3685 2.43239 25.4178C2.41312 25.4497 2.39268 25.4808 2.37421 25.5135C2.33883 25.5773 2.30739 25.6431 2.27633 25.7093C2.26769 25.7282 2.25707 25.7452 2.24882 25.7645C2.24725 25.768 2.24646 25.772 2.24489 25.7751C2.21344 25.8476 2.18632 25.9221 2.16077 25.9969C2.15409 26.0162 2.14583 26.0351 2.13954 26.0544C2.12028 26.1155 2.10495 26.1785 2.08962 26.2412C2.08097 26.2759 2.07036 26.3101 2.06289 26.3452C2.05464 26.3838 2.05031 26.4232 2.04363 26.4622C2.03341 26.5221 2.02241 26.582 2.01612 26.6423C2.01376 26.6659 2.01376 26.6895 2.01179 26.7132C2.0055 26.7888 2.00079 26.8649 2.00039 26.9405C2.00039 26.9448 2 26.9488 2 26.9535V84.6428C2 85.7952 2.66823 86.8423 3.71185 87.3254L54.264 110.727C54.264 110.727 54.271 110.729 54.2742 110.731C54.2958 110.741 54.3178 110.748 54.3394 110.757C54.4377 110.799 54.5364 110.836 54.6366 110.867C54.6716 110.877 54.707 110.887 54.7427 110.896C54.8383 110.922 54.9338 110.942 55.0297 110.958C55.0592 110.963 55.0886 110.968 55.1185 110.972C55.2451 110.989 55.3721 111 55.4982 111C55.5108 111 55.523 110.998 55.5356 110.997C55.6468 110.996 55.7581 110.988 55.8689 110.974C55.9098 110.968 55.9499 110.961 55.99 110.954C56.0761 110.939 56.1617 110.921 56.2467 110.899C56.2864 110.889 56.3253 110.878 56.3642 110.866C56.4581 110.837 56.5501 110.803 56.6417 110.764C56.6672 110.754 56.6932 110.745 56.7183 110.734C56.7242 110.731 56.7305 110.729 56.736 110.727L107.288 87.325C108.332 86.842 109 85.7948 109 84.6424V26.9523C109 26.8251 108.989 26.7002 108.974 26.5773ZM58.4479 103.424V63.7477C58.4479 62.1154 57.1283 60.7928 55.4998 60.7928C53.8713 60.7928 52.5517 62.1154 52.5517 63.7477V103.424L7.89577 82.7521V31.4784L54.3139 51.9243C54.692 52.091 55.0957 52.1741 55.5002 52.1741C55.9047 52.1741 56.3084 52.091 56.6865 51.9243L103.104 31.4784V82.7517L58.4479 103.424Z" fill="url(#paint0_linear)"/>
<defs>
<linearGradient id="paint0_linear" x1="109" y1="0.99998" x2="-12.4809" y2="20.4213" gradientUnits="userSpaceOnUse">
<stop stop-color="#75FF34"/>
<stop offset="1" stop-color="#37D133"/>
</linearGradient>
</defs>
</svg>
